<svg width="18" height="18" viewBox="0 0 18 18" fill="none" xmlns="http://www.w3.org/2000/svg">
<path d="M16.4692 10.2893V15.8235H13.2607V10.6598C13.2607 9.36228 12.7965 8.47728 11.6355 8.47728C10.749 8.47728 10.221 9.07428 9.98925 9.65103C9.9045 9.85728 9.88275 10.1445 9.88275 10.4333V15.8235H6.67275C6.67275 15.8235 6.71625 7.07853 6.67275 6.17178H9.88275V7.53978L9.86175 7.57128H9.88275V7.53978C10.3088 6.88353 11.07 5.94528 12.7747 5.94528C14.886 5.94528 16.4692 7.32528 16.4692 10.2893ZM3.31575 1.51953C2.2185 1.51953 1.5 2.23953 1.5 3.18678C1.5 4.11303 2.1975 4.85478 3.27375 4.85478H3.29475C4.4145 4.85478 5.10975 4.11303 5.10975 3.18678C5.09025 2.23953 4.41525 1.51953 3.3165 1.51953H3.31575ZM1.6905 15.8235H4.899V6.17178H1.6905V15.8235Z" fill="white"/>
</svg>
