<svg width="18" height="19" viewBox="0 0 18 19" fill="none" xmlns="http://www.w3.org/2000/svg">
<path d="M16.5 5.18022C15.9378 5.42575 15.3423 5.58675 14.733 5.65797C15.3726 5.28239 15.8535 4.6868 16.086 3.98247C15.48 4.33522 14.8191 4.58367 14.1307 4.71747C13.8409 4.41387 13.4923 4.17251 13.1061 4.0081C12.7199 3.8437 12.3042 3.75969 11.8845 3.76122C10.185 3.76122 8.80725 5.11872 8.80725 6.79122C8.80725 7.02822 8.83425 7.25997 8.88675 7.48122C7.66768 7.42324 6.47409 7.11178 5.38213 6.5667C4.29016 6.02162 3.32382 5.25491 2.54475 4.31547C2.27162 4.77627 2.12806 5.30231 2.12925 5.83797C2.12925 6.89022 2.67225 7.81797 3.49725 8.36022C3.00936 8.34447 2.53202 8.21421 2.10375 7.97997V8.01747C2.10375 9.48597 3.165 10.7107 4.57125 10.9897C4.30696 11.0598 4.03469 11.0954 3.76125 11.0955C3.5625 11.0955 3.36975 11.0767 3.1815 11.0392C3.38256 11.6452 3.76733 12.1735 4.28236 12.5507C4.7974 12.928 5.41713 13.1355 6.0555 13.1445C4.96055 13.9879 3.61636 14.4435 2.23425 14.4397C1.98525 14.4397 1.74075 14.4247 1.5 14.3977C2.91094 15.2908 4.54694 15.7637 6.21675 15.7612C11.877 15.7612 14.9715 11.1435 14.9715 7.13922L14.961 6.74697C15.5646 6.32222 16.0861 5.79136 16.5 5.18022Z" fill="#BEE956"/>
</svg>
